<svg id="logo" xmlns="http://www.w3.org/2000/svg" xmlns:xlink="http://www.w3.org/1999/xlink" viewBox="0 0 207.62 50.39">
  <defs id="defs4">
    <symbol id="a" overflow="visible">
      <path id="path7" d="M10.27-3.6c-.6.6-1.32.9-2.16.9-1.12 0-2.03-.47-2.75-1.4-.7-.93-1.07-2.48-1.07-4.68 0-2.06.37-3.56 1.1-4.5.7-.9 1.65-1.36 2.8-1.36.83 0 1.55.27 2.13.77.6.54 1 1.23 1.16 2.14l3.13-.83c-.37-1.38-.9-2.44-1.6-3.2-1.2-1.26-2.76-1.88-4.66-1.88-2.2 0-3.96.8-5.3 2.4-1.33 1.58-2 3.83-2 6.72 0 2.74.67 4.86 2 6.44C4.36-.52 6.06.3 8.14.3c1.66 0 3.06-.47 4.14-1.4 1.1-.93 1.88-2.34 2.33-4.24L11.58-6.4c-.26 1.28-.7 2.2-1.3 2.8zm0 0"/>
    </symbol>
    <symbol id="b" overflow="visible">
      <path id="path10" d="M2.98-2.06C4.36-.48 6.2.3 8.52.3c2.3 0 4.14-.78 5.5-2.36 1.4-1.6 2.06-3.77 2.06-6.58 0-2.83-.7-5.03-2.08-6.63-1.36-1.57-3.22-2.37-5.5-2.37-1.3 0-2.4.22-3.38.67-.7.34-1.4.88-2.03 1.58-.63.7-1.1 1.5-1.45 2.4-.5 1.2-.72 2.7-.72 4.45 0 2.78.67 4.94 2.04 6.5zm2.4-11.1c.8-1 1.85-1.48 3.14-1.48 1.3 0 2.36.48 3.14 1.47.78.97 1.17 2.45 1.17 4.45 0 2.02-.4 3.52-1.22 4.53-.8 1-1.8 1.5-3.07 1.5-1.27 0-2.3-.5-3.1-1.5-.83-1-1.23-2.5-1.23-4.46 0-2 .38-3.5 1.17-4.5zm0 0"/>
    </symbol>
    <symbol id="c" overflow="visible">
      <path id="path13" d="M4.8 0v-5.25l2.5-2.88L11.64 0h4.07L9.5-10.58l5.9-6.75h-4.24L4.8-9.66v-7.67H1.64V0zm0 0"/>
    </symbol>
    <symbol id="d" overflow="visible">
      <path id="path16" d="M1.05 0l.84-2.05h3.2L5.95 0h1.16l-3.1-6.73H2.9L0 0zm1.97-4.73c.17-.44.3-.86.42-1.3.1.36.3.83.54 1.4l.8 1.86h-2.6zm0 0"/>
    </symbol>
    <symbol id="e" overflow="visible">
      <path id="path19" d="M1.84 0v-2.98h1.74c.15.06.3.1.47.2.14.08.3.23.5.45.18.22.43.52.73.92l1 1.4h1.27L6.22-1.84c-.27-.36-.53-.67-.83-.9-.16-.1-.36-.22-.63-.33.74-.1 1.27-.3 1.63-.63.35-.3.52-.7.52-1.2 0-.36-.1-.7-.3-1-.23-.3-.5-.53-.85-.65-.35-.1-.88-.17-1.55-.17H.84V0zm0-5.98h2.4c.57 0 1 .1 1.24.3.27.2.4.46.4.77 0 .2-.05.4-.2.6-.13.2-.32.32-.6.4-.25.1-.6.12-1.06.12H1.84zm0 0"/>
    </symbol>
    <symbol id="f" overflow="visible">
      <path id="path22" d="M5.45-1.08c-.4.28-.86.42-1.43.42-.46 0-.9-.1-1.3-.3-.38-.2-.67-.54-.86-.96-.2-.44-.28-.92-.28-1.5 0-.44.08-.88.23-1.3.18-.42.46-.75.85-.98.4-.27.88-.38 1.47-.38.53 0 .93.1 1.28.33.32.22.57.58.76 1.06l1-.2c-.22-.6-.58-1.07-1.1-1.42-.52-.34-1.15-.5-1.92-.5-.67 0-1.28.1-1.84.4-.56.26-1 .65-1.3 1.18C.7-4.72.55-4.1.55-3.4c0 .63.14 1.24.4 1.8.27.56.66 1 1.18 1.3.52.3 1.18.42 2 .42.8 0 1.46-.18 2.03-.55.53-.4.92-.96 1.12-1.7l-1-.2c-.14.55-.4 1-.8 1.27zm0 0"/>
    </symbol>
    <symbol id="g" overflow="visible">
      <path id="path25" d="M1.88 0v-3.17H5.8V0h1.03v-6.73H5.8v2.78H1.9v-2.78H.85V0zm0 0"/>
    </symbol>
    <symbol id="h" overflow="visible">
      <path id="path28" d="M2 0v-6.73H.98V0zm0 0"/>
    </symbol>
    <symbol id="i" overflow="visible">
      <path id="path31" d="M3.77 0v-5.94h2.5v-.8h-6v.8h2.5V0zm0 0"/>
    </symbol>
    <symbol id="j" overflow="visible">
      <path id="path34" d="M6.52 0v-.8H1.84v-2.28h4.2v-.8h-4.2v-2.06h4.5v-.8H.84V0zm0 0"/>
    </symbol>
    <symbol id="k" overflow="visible">
      <path id="path37" d="M5.8-2.84c0 .84-.14 1.4-.46 1.7-.32.3-.84.45-1.6.45-.4 0-.77-.06-1.07-.2-.3-.15-.5-.37-.64-.64-.1-.28-.2-.7-.2-1.3v-3.88h-1v3.9c0 .7.1 1.25.3 1.67.18.4.53.72.96.94.44.2 1.03.3 1.75.3.75 0 1.3-.1 1.78-.36.45-.25.76-.57.93-.96.17-.4.27-.94.27-1.6v-3.9H5.8zm0 0"/>
    </symbol>
    <symbol id="m" overflow="visible">
      <path id="path40" d="M3.22-2.02v-.82H.32v.82zm0 0"/>
    </symbol>
    <symbol id="n" overflow="visible">
      <path id="path43" d="M.9-.95c.27.34.63.62 1.1.8.47.18 1.05.26 1.73.26.55 0 1.04-.06 1.46-.25.4-.17.76-.42 1-.73.2-.3.34-.65.34-1s-.1-.68-.33-.96c-.2-.27-.52-.5-.96-.67-.3-.14-.86-.3-1.7-.45-.8-.15-1.32-.33-1.5-.48-.2-.16-.3-.36-.3-.6 0-.28.14-.5.4-.7.3-.2.74-.3 1.35-.3.6 0 1 .1 1.3.32.32.2.5.53.55.95l.97-.06c-.03-.4-.14-.77-.38-1.07-.23-.3-.56-.54-1-.7-.43-.17-.93-.24-1.5-.24-.5 0-.97.06-1.4.2-.4.16-.74.4-.94.7-.2.3-.32.6-.32.95 0 .3.08.57.27.84.17.22.43.44.8.6.3.14.77.28 1.48.4l1.36.35c.3.12.5.25.65.4.14.16.22.35.22.55 0 .2-.08.4-.22.58-.14.17-.36.3-.66.42-.3.1-.65.16-1 .16-.46 0-.85-.08-1.2-.2-.34-.15-.6-.32-.76-.54-.17-.23-.27-.5-.3-.83l-.97.06c.02.44.16.85.43 1.2zm0 0"/>
    </symbol>
    <symbol id="o" overflow="visible">
      <path id="path46" d="M1.78 0v-5.28l4 5.28H6.8v-6.73h-.96v5.28l-4-5.28H.8V0zm0 0"/>
    </symbol>
    <symbol id="p" overflow="visible">
      <path id="path49" d="M1.48 0c0 .28-.06.48-.17.64C1.24.8 1.1.9.9.98l.24.35c.3-.1.52-.28.66-.5.14-.2.22-.5.22-.83v-.94H.95V0zm0 0"/>
    </symbol>
    <symbol id="q" overflow="visible">
      <path id="path52" d="M1.25 0L3.2-2.33l.35-.48c.1.12.2.24.3.4L5.8 0h1.24L4.2-3.53l2.63-3.2h-1.1L4.18-4.95c-.23.28-.43.5-.6.76-.12-.2-.32-.45-.62-.8l-1.4-1.7H.4L3-3.5.05 0zm0 0"/>
    </symbol>
  </defs>
  <g id="g54" fill="#231f20" transform="translate(-21.9 -46.863)">
    <use id="use56" width="100%" height="100%" x="41.91" y="81.77" xlink:href="#a"/>
    <use id="use58" width="100%" height="100%" x="57.64" y="81.77" xlink:href="#b"/>
    <use id="use60" width="100%" height="100%" x="74.58" y="81.77" xlink:href="#b"/>
    <use id="use62" width="100%" height="100%" x="91.52" y="81.77" xlink:href="#c"/>
  </g>
  <path id="path64" fill="none" stroke="#231f20" stroke-width=".67" stroke-miterlimit="2.69" d="M96.16 33.3c.4.6.95 1.06 1.65 1.36.73.3 1.6.45 2.65.45.83 0 1.56-.13 2.22-.44.65-.3 1.17-.72 1.5-1.25.36-.54.55-1.12.55-1.72 0-.63-.17-1.18-.48-1.66-.33-.47-.8-.84-1.48-1.16-.46-.2-1.32-.47-2.55-.75-1.25-.25-2.02-.53-2.3-.8-.3-.3-.47-.6-.47-1.03 0-.47.22-.88.63-1.22.44-.32 1.1-.5 2.05-.5.88 0 1.55.2 2 .57.46.36.72.9.8 1.64l1.47-.1c-.03-.68-.2-1.3-.56-1.82-.35-.54-.85-.94-1.5-1.2-.65-.3-1.4-.43-2.27-.43-.77 0-1.5.14-2.1.4-.65.27-1.14.66-1.46 1.16-.33.5-.5 1.04-.5 1.64 0 .53.14 1 .4 1.44.28.42.67.78 1.24 1.07.43.23 1.18.48 2.24.7 1.05.28 1.73.47 2.05.6.47.18.82.4 1.02.67.23.27.34.6.34.96 0 .34-.1.7-.33.98-.2.3-.54.56-1 .73-.44.2-.96.27-1.54.27-.65 0-1.24-.13-1.76-.34-.52-.25-.9-.55-1.16-.92-.25-.38-.42-.84-.48-1.44l-1.44.14c.03.77.23 1.47.64 2.08zm15.1 1.64v-10.2h3.8v-1.36h-9.14v1.36h3.8v10.2zm12.94-4.9c0 1.45-.24 2.43-.7 2.95-.5.5-1.27.75-2.4.75-.65 0-1.2-.13-1.65-.38-.46-.26-.78-.62-.97-1.1-.17-.48-.27-1.2-.27-2.23v-6.66h-1.5v6.67c0 1.23.13 2.2.4 2.9.3.7.8 1.25 1.48 1.6.7.4 1.58.57 2.67.57 1.1 0 2-.2 2.7-.64.66-.42 1.13-.98 1.4-1.65.26-.7.4-1.6.4-2.77V23.4h-1.54zm8.26 4.9c.7 0 1.3-.08 1.84-.2.55-.14 1-.33 1.4-.6.38-.25.72-.6 1.04-1.04.32-.46.57-1 .8-1.67.2-.7.3-1.48.3-2.36 0-1.03-.15-1.92-.45-2.73-.33-.8-.78-1.46-1.4-1.96-.46-.4-1.02-.67-1.7-.85-.45-.1-1.15-.16-2.04-.16h-4v11.57zm-2.63-10.2h2.4c.9 0 1.57.08 2 .23.55.22 1.04.66 1.43 1.3.4.66.6 1.6.6 2.8 0 .87-.1 1.62-.3 2.23-.2.6-.5 1.1-.85 1.47-.24.25-.6.45-1 .6-.45.13-1.04.2-1.8.2h-2.46zm11.9 10.2V23.37h-1.53v11.57zm2.9-2.75c.43.9 1.1 1.62 1.94 2.13.85.52 1.82.77 2.92.77.97 0 1.9-.23 2.77-.7.87-.48 1.54-1.17 2-2.1.48-.92.7-1.96.7-3.13 0-1.16-.2-2.2-.66-3.1-.44-.9-1.1-1.62-1.94-2.14-.84-.5-1.8-.75-2.88-.75-1.65 0-2.96.55-4 1.63-1.02 1.08-1.54 2.58-1.54 4.5 0 1 .22 1.97.66 2.88zm2.07-6.57c.8-.76 1.7-1.14 2.8-1.14.76 0 1.43.2 2.06.57.6.4 1.08.92 1.37 1.64.33.7.5 1.53.5 2.47 0 1.48-.37 2.62-1.12 3.42-.72.8-1.67 1.2-2.83 1.2-1.12 0-2.06-.4-2.8-1.2-.76-.8-1.12-1.9-1.12-3.3 0-1.7.38-2.95 1.16-3.7zm11.27 9.3c-.02.48-.1.84-.24 1.1-.14.25-.36.44-.65.57l.37.62c.45-.2.8-.48 1-.86.22-.36.33-.84.33-1.43V33.3h-1.6v1.6zm15.13 0v-1.36h-5.7v-10.2h-1.53v11.57zm8.96 0v-1.36h-5.7v-10.2h-1.52v11.57zm8.84-1.86c-.6.5-1.3.75-2.17.75-.68 0-1.36-.2-1.95-.55-.6-.36-1.05-.9-1.3-1.64-.3-.75-.45-1.6-.45-2.6 0-.74.1-1.5.34-2.2.25-.7.68-1.3 1.27-1.7.6-.43 1.34-.65 2.22-.65.78 0 1.4.2 1.92.58.5.37.9.98 1.16 1.82l1.5-.36c-.3-1.07-.85-1.88-1.64-2.47-.8-.6-1.75-.88-2.9-.88-1.04 0-1.95.22-2.8.7-.85.46-1.5 1.13-1.96 2.04-.47.9-.7 1.93-.7 3.14 0 1.1.2 2.14.62 3.07.4.98 1 1.7 1.77 2.23.78.5 1.8.75 3.03.75 1.2 0 2.22-.3 3.04-.98.83-.67 1.4-1.62 1.74-2.87l-1.53-.4c-.2.98-.6 1.7-1.2 2.2zm0 0"/>
  <g id="g66" fill="#231f20" transform="translate(-21.9 -46.863)">
    <use id="use68" width="100%" height="100%" x="43.55" y="95.07" xlink:href="#d"/>
    <use id="use70" width="100%" height="100%" x="50.65" y="95.07" xlink:href="#e"/>
    <use id="use72" width="100%" height="100%" x="58.32" y="95.07" xlink:href="#f"/>
    <use id="use74" width="100%" height="100%" x="66" y="95.07" xlink:href="#g"/>
    <use id="use76" width="100%" height="100%" x="73.68" y="95.07" xlink:href="#h"/>
    <use id="use78" width="100%" height="100%" x="76.63" y="95.07" xlink:href="#i"/>
    <use id="use80" width="100%" height="100%" x="83.13" y="95.07" xlink:href="#j"/>
    <use id="use82" width="100%" height="100%" x="90.22" y="95.07" xlink:href="#f"/>
    <use id="use84" width="100%" height="100%" x="97.9" y="95.07" xlink:href="#i"/>
    <use id="use86" width="100%" height="100%" x="104.4" y="95.07" xlink:href="#k"/>
    <use id="use88" width="100%" height="100%" x="112.08" y="95.07" xlink:href="#e"/>
    <use id="use90" width="100%" height="100%" x="119.75" y="95.07" xlink:href="#j"/>
    <use id="use92" width="100%" height="100%" x="126.85" y="95.07" xlink:href="#l"/>
    <use id="use94" width="100%" height="100%" x="129.8" y="95.07" xlink:href="#m"/>
    <use id="use96" width="100%" height="100%" x="133.34" y="95.07" xlink:href="#l"/>
  </g>
  <g id="g98" fill="#231f20" transform="translate(-21.9 -46.863)">
    <use id="use100" width="100%" height="100%" x="135.72" y="95.07" xlink:href="#d"/>
    <use id="use102" width="100%" height="100%" x="142.81" y="95.07" xlink:href="#k"/>
    <use id="use104" width="100%" height="100%" x="150.49" y="95.07" xlink:href="#n"/>
    <use id="use106" width="100%" height="100%" x="157.58" y="95.07" xlink:href="#i"/>
    <use id="use108" width="100%" height="100%" x="164.08" y="95.07" xlink:href="#h"/>
    <use id="use110" width="100%" height="100%" x="167.04" y="95.07" xlink:href="#o"/>
    <use id="use112" width="100%" height="100%" x="174.71" y="95.07" xlink:href="#p"/>
    <use id="use114" width="100%" height="100%" x="177.67" y="95.07" xlink:href="#l"/>
  </g>
  <g id="g116" fill="#231f20" transform="translate(-21.9 -46.863)">
    <use id="use118" width="100%" height="100%" x="180.43" y="95.07" xlink:href="#i"/>
    <use id="use120" width="100%" height="100%" x="186.93" y="95.07" xlink:href="#j"/>
    <use id="use122" width="100%" height="100%" x="194.02" y="95.07" xlink:href="#q"/>
    <use id="use124" width="100%" height="100%" x="201.11" y="95.07" xlink:href="#d"/>
    <use id="use126" width="100%" height="100%" x="208.21" y="95.07" xlink:href="#n"/>
  </g>
  <path id="path128" fill="none" stroke="#231f20" stroke-width="1.34" d="M17.2 50.4V10.7M.68 19.2l56.04-17"/>
  <path id="path130" fill="none" stroke="#231f20" stroke-width=".67" d="M97.55 17.68L46.08.32M0 18.02h19.74M11.62 38.2h196M89.6 40.46v-28.3M197.8 33.7v15.84"/>
</svg>
