<?xml version="1.0" encoding="UTF-8" standalone="no"?>
<!-- Created with Inkscape (http://www.inkscape.org/) -->

<svg
   xmlns:dc="http://purl.org/dc/elements/1.1/"
   xmlns:cc="http://creativecommons.org/ns#"
   xmlns:rdf="http://www.w3.org/1999/02/22-rdf-syntax-ns#"
   xmlns:svg="http://www.w3.org/2000/svg"
   xmlns="http://www.w3.org/2000/svg"
   xmlns:sodipodi="http://sodipodi.sourceforge.net/DTD/sodipodi-0.dtd"
   xmlns:inkscape="http://www.inkscape.org/namespaces/inkscape"
   id="svg4155"
   version="1.1"
   inkscape:version="0.91 r13725"
   xml:space="preserve"
   width="259.521"
   height="62.981583"
   viewBox="0 0 259.521 62.981583"
   sodipodi:docname="logo-with-text.svg"><metadata
     id="metadata4161"><rdf:RDF><cc:Work
         rdf:about=""><dc:format>image/svg+xml</dc:format><dc:type
           rdf:resource="http://purl.org/dc/dcmitype/StillImage" /><dc:title></dc:title></cc:Work></rdf:RDF></metadata><defs
     id="defs4159" /><sodipodi:namedview
     pagecolor="#ffffff"
     bordercolor="#666666"
     borderopacity="1"
     objecttolerance="10"
     gridtolerance="10"
     guidetolerance="10"
     inkscape:pageopacity="0"
     inkscape:pageshadow="2"
     inkscape:window-width="1448"
     inkscape:window-height="865"
     id="namedview4157"
     showgrid="false"
     inkscape:zoom="3.0952381"
     inkscape:cx="102.752"
     inkscape:cy="-26.879"
     inkscape:window-x="0"
     inkscape:window-y="0"
     inkscape:window-maximized="0"
     inkscape:current-layer="g4163"
     fit-margin-top="0"
     fit-margin-left="0"
     fit-margin-right="0"
     fit-margin-bottom="0" /><g
     id="g4163"
     inkscape:groupmode="layer"
     inkscape:label="ink_ext_XXXXXX"
     transform="matrix(1.25,0,0,-1.25,-27.374,121.42108)"><g
       id="g4165"
       transform="scale(0.1,0.1)"><g
         id="g4167"
         transform="scale(10,10)"><text
           transform="matrix(0.899999,0,0,-1,41.9137,62.2316)"
           style="font-variant:normal;font-weight:bold;font-size:24.19779968px;font-family:Arial;-inkscape-font-specification:Arial-BoldMT;writing-mode:lr-tb;fill:#231f20;fill-opacity:1;fill-rule:nonzero;stroke:none"
           id="text4169"><tspan
             x="0 17.470812 36.2967 55.122589"
             y="0"
             sodipodi:role="line"
             id="tspan4171">COOK</tspan></text>
</g><path
         d="m 1180.62,638.488 c 4.04,-5.984 9.56,-10.687 16.68,-13.765 7.13,-3.078 15.88,-4.532 26.41,-4.532 8.27,0 15.72,1.454 22.19,4.532 6.65,3.078 11.83,7.281 15.23,12.64 3.57,5.5 5.35,11.328 5.35,17.485 0,6.156 -1.63,11.672 -4.86,16.531 -3.24,4.687 -8.1,8.578 -14.91,11.656 -4.53,2.11 -13.11,4.703 -25.59,7.453 -12.47,2.75 -20.25,5.516 -23.16,8.266 -3.08,2.75 -4.55,6.156 -4.55,10.359 0,4.703 2.11,8.75 6.33,12.157 4.38,3.406 11.02,5.187 20.41,5.187 8.9,0 15.55,-1.953 20.09,-5.672 4.69,-3.734 7.28,-9.234 8.1,-16.531 l 14.73,1.141 c -0.31,6.796 -2.09,12.953 -5.66,18.312 -3.57,5.344 -8.59,9.391 -15.23,12.141 -6.48,2.75 -14.09,4.218 -22.67,4.218 -7.78,0 -14.91,-1.296 -21.24,-3.89 -6.47,-2.75 -11.32,-6.641 -14.57,-11.672 -3.4,-5.172 -5.02,-10.516 -5.02,-16.516 0,-5.343 1.3,-10.047 4.05,-14.422 2.75,-4.203 6.79,-7.937 12.31,-10.843 4.37,-2.282 11.83,-4.703 22.51,-7.141 10.54,-2.594 17.5,-4.531 20.58,-5.672 4.86,-1.937 8.27,-4.203 10.36,-6.797 2.11,-2.75 3.25,-6 3.25,-9.562 0,-3.563 -1.14,-6.953 -3.25,-9.875 -2.26,-3.078 -5.5,-5.516 -10.03,-7.297 -4.55,-1.781 -9.73,-2.594 -15.56,-2.594 -6.47,0 -12.47,1.141 -17.66,3.406 -5.34,2.438 -9.23,5.344 -11.65,9.079 -2.6,3.718 -4.22,8.578 -4.86,14.421 l -14.43,-1.296 c 0.16,-7.782 2.27,-14.75 6.32,-20.907 z m 151.17,-16.359 0,102.375 38.24,0 0,13.609 -91.86,0 0,-13.609 38.23,0 0,-102.375 15.39,0 z m 129.67,49.078 c 0,-14.578 -2.43,-24.453 -7.12,-29.641 -4.86,-5.015 -12.8,-7.609 -24.14,-7.609 -6.49,0 -11.99,1.297 -16.53,3.891 -4.53,2.593 -7.77,6.312 -9.72,11.015 -1.78,4.86 -2.75,12.141 -2.75,22.344 l 0,66.906 -15.39,0 0,-67.062 c 0,-12.156 1.45,-21.875 4.37,-29 2.93,-7.125 7.94,-12.469 14.74,-16.203 6.97,-3.719 15.87,-5.657 26.73,-5.657 11.17,0 20.1,2.094 27.06,6.469 6.8,4.219 11.5,9.891 14.25,16.688 2.6,6.812 3.9,16.203 3.9,27.703 l 0,67.062 -15.4,0 0,-66.906 z m 82.29,-49.078 c 7.12,0 13.28,0.641 18.62,1.937 5.52,1.297 10.05,3.25 13.94,5.844 3.89,2.594 7.3,6.156 10.53,10.531 3.23,4.532 5.83,10.032 7.94,16.844 2.11,6.797 3.08,14.735 3.08,23.485 0,10.375 -1.46,19.437 -4.54,27.546 -3.07,8.094 -7.62,14.735 -13.78,19.75 -4.68,4.063 -10.36,6.813 -17,8.438 -4.7,1.125 -11.67,1.609 -20.58,1.609 l -40.01,0 0,-115.984 41.8,0 z m -26.41,102.375 24.3,0 c 9.07,0 15.72,-0.797 19.93,-2.422 5.68,-2.109 10.54,-6.484 14.41,-13.125 4.06,-6.484 6,-15.875 6,-28.031 0,-8.735 -0.97,-16.188 -3.08,-22.344 -1.94,-6.156 -4.86,-11.016 -8.42,-14.75 -2.59,-2.594 -6.16,-4.531 -10.37,-5.984 -4.38,-1.469 -10.36,-2.11 -17.97,-2.11 l -24.8,0 0,88.766 z m 119.06,-102.375 0,115.984 -15.39,0 0,-115.984 15.39,0 z m 28.81,27.547 c 4.38,-9.078 11.02,-16.375 19.6,-21.547 8.59,-5.359 18.31,-7.938 29.33,-7.938 10.04,0 19.43,2.422 28.01,7.125 8.75,4.86 15.56,11.829 20.25,21.063 4.71,9.234 7.14,19.75 7.14,31.578 0,11.5 -2.28,21.875 -6.81,31.109 -4.53,9.063 -11.02,16.204 -19.59,21.375 -8.6,5.032 -18.32,7.625 -29,7.625 -16.36,0 -29.66,-5.515 -40.02,-16.359 -10.37,-10.859 -15.55,-25.922 -15.55,-45.203 0,-10.047 2.27,-19.766 6.64,-28.828 z m 20.9,65.922 c 7.93,7.453 17.17,11.187 28.03,11.187 7.76,0 14.57,-1.953 20.73,-5.844 6.16,-3.89 10.84,-9.234 13.92,-16.359 3.25,-6.969 4.88,-15.219 4.88,-24.625 0,-14.906 -3.74,-26.406 -11.19,-34.5 -7.45,-8.094 -17,-12.156 -28.52,-12.156 -11.32,0 -20.73,4.062 -28.18,12 -7.61,8.094 -11.33,19.109 -11.33,33.047 0,17.328 3.89,29.797 11.66,37.25 z m 112.7,-93.469 c -0.15,-4.859 -0.97,-8.422 -2.42,-11.016 -1.47,-2.593 -3.56,-4.531 -6.64,-5.828 l 3.88,-6.156 c 4.54,1.937 7.93,4.859 10.04,8.578 2.11,3.563 3.25,8.422 3.25,14.422 l 0,16.203 -16.2,0 0,-16.203 8.09,0 z m 151.41,0 0,13.609 -57.02,0 0,102.375 -15.39,0 0,-115.984 72.41,0 z m 89.69,0 0,13.609 -57.02,0 0,102.375 -15.39,0 0,-115.984 72.41,0 z m 88.57,18.625 c -6,-5.016 -13.3,-7.453 -21.88,-7.453 -6.97,0 -13.61,1.781 -19.59,5.515 -6,3.563 -10.53,9.063 -13.3,16.36 -2.91,7.453 -4.37,16.031 -4.37,25.922 0,7.609 1.14,15.062 3.57,22.187 2.43,7.297 6.64,12.969 12.63,17.172 6,4.375 13.45,6.484 22.36,6.484 7.78,0 14.09,-1.937 19.28,-5.828 5.02,-3.734 8.91,-9.89 11.66,-18.312 l 15.06,3.562 c -3.08,10.688 -8.58,18.953 -16.52,24.782 -7.93,6 -17.65,8.921 -29.15,8.921 -10.38,0 -19.61,-2.265 -28.19,-6.968 -8.42,-4.703 -15.08,-11.5 -19.61,-20.578 -4.69,-8.907 -6.97,-19.438 -6.97,-31.594 0,-11.016 2.11,-21.375 6.16,-30.938 4.06,-9.718 10.04,-17 17.83,-22.187 7.76,-5.031 17.98,-7.61 30.45,-7.61 11.98,0 22.19,3.235 30.61,9.875 8.26,6.641 14.09,16.204 17.34,28.829 l -15.39,3.89 c -2.11,-9.719 -6.16,-17.172 -11.98,-22.031 z"
         style="fill:none;stroke:#231f20;stroke-width:6.72161007;stroke-linecap:butt;stroke-linejoin:miter;stroke-miterlimit:2.68864012;stroke-dasharray:none;stroke-opacity:1"
         id="path4173"
         inkscape:connector-curvature="0" /><g
         id="g4175"
         transform="scale(10,10)"><text
           transform="matrix(1,0,0,-0.88495575,43.5535,48.9313)"
           style="font-variant:normal;font-weight:normal;font-size:10.63358212px;font-family:Arial;-inkscape-font-specification:ArialMT;writing-mode:lr-tb;fill:#231f20;fill-opacity:1;fill-rule:nonzero;stroke:none"
           id="text4177"><tspan
             x="0 7.0925994 14.770046 22.447493 30.124939 33.081074 39.578194 46.670795 54.34824 60.84536 68.522804 76.200249 83.292854 86.248985 89.78997 92.161171 99.253769 106.93122 114.02382 120.52094 123.47707 131.15453 134.11066 136.87009 143.3672 150.45981 157.5524 164.645"
             y="0"
             sodipodi:role="line"
             id="tspan4179">ARCHITECTURE - AUSTIN, TEXAS</tspan></text>
</g><path
         d="m 390.906,467.516 0,396.812"
         style="fill:none;stroke:#231f20;stroke-width:13.44320011;stroke-linecap:butt;stroke-linejoin:miter;stroke-miterlimit:4;stroke-dasharray:none;stroke-opacity:1"
         id="path4181"
         inkscape:connector-curvature="0" /><path
         d="M 225.785,779.508 786.172,949.652"
         style="fill:none;stroke:#231f20;stroke-width:13.44320011;stroke-linecap:butt;stroke-linejoin:miter;stroke-miterlimit:4;stroke-dasharray:none;stroke-opacity:1"
         id="path4183"
         inkscape:connector-curvature="0" /><path
         d="M 1194.54,794.648 679.824,968.184"
         style="fill:none;stroke:#231f20;stroke-width:6.72161007;stroke-linecap:butt;stroke-linejoin:miter;stroke-miterlimit:4;stroke-dasharray:none;stroke-opacity:1"
         id="path4185"
         inkscape:connector-curvature="0" /><path
         d="m 218.992,791.223 197.453,0"
         style="fill:none;stroke:#231f20;stroke-width:6.72161007;stroke-linecap:butt;stroke-linejoin:miter;stroke-miterlimit:4;stroke-dasharray:none;stroke-opacity:1"
         id="path4187"
         inkscape:connector-curvature="0" /><path
         d="m 335.141,589.547 1960.019,0"
         style="fill:none;stroke:#231f20;stroke-width:6.72161007;stroke-linecap:butt;stroke-linejoin:miter;stroke-miterlimit:4;stroke-dasharray:none;stroke-opacity:1"
         id="path4189"
         inkscape:connector-curvature="0" /><path
         d="m 1114.96,566.695 0,283.114"
         style="fill:none;stroke:#231f20;stroke-width:6.72161007;stroke-linecap:butt;stroke-linejoin:miter;stroke-miterlimit:4;stroke-dasharray:none;stroke-opacity:1"
         id="path4191"
         inkscape:connector-curvature="0" /><path
         d="m 2197,634.449 0,-158.465"
         style="fill:none;stroke:#231f20;stroke-width:6.72161007;stroke-linecap:butt;stroke-linejoin:miter;stroke-miterlimit:4;stroke-dasharray:none;stroke-opacity:1"
         id="path4193"
         inkscape:connector-curvature="0" /></g></g></svg>